<svg viewBox="0 0 3 3">
      <defs>
        <clipPath clipPathUnits="objectBoundingBox">
          <path d="M1.00097 1.99998V1.27079C0.997699 1.24996 1.0023 1.22346 1.02058 1.19642C1.06674 1.12813 1.20012 1.05648 1.514 1.06452C1.95214 1.07575 2.01814 1.20671 1.99638 1.27079V1.99998H1.00097Z" stroke="black"/>
<path d="M1.40411 1.08801C1.43052 1.06326 1.46427 1.05088 1.49802 1.05088C1.53176 1.05088 1.56551 1.06326 1.59192 1.08801C1.65482 1.14695 1.64529 1.23813 1.59216 1.28866C1.56854 1.31111 1.53632 1.32554 1.49802 1.32554C1.45971 1.32554 1.42749 1.31111 1.40388 1.28866C1.35074 1.23813 1.34121 1.14695 1.40411 1.08801Z" stroke="black"/>
        </clipPath>
      </defs>
    </svg>