<svg id="Слой_1" data-name="Слой 1" xmlns="http://www.w3.org/2000/svg" viewBox="0 0 558.69 488.08">
<defs>
<style>
.cls-1{fill:#29327c;}.cls-2{fill:#e17d73;}.cls-3{fill:#6b5c49;}.cls-4{fill:#d49e8d;}.cls-5{fill:#3c3c3b;}
<!-- path {
      fill: red; opacity: 0;
      animation: 3s opacity ease-in-out;
    }
    @keyframes opacity {
      0% {opacity: 0}
      25% {opacity: 0.25}
      50% {opacity: 0.5}
      75% {opacity: 0.75}
      100% {opacity: 1}
    } -->
</style></defs>
<path class="cls-1" d="M432.26,228.74v0h0Z" transform="translate(-141.5 -53.87)"/>
<path class="cls-2" d="M340,264l9,12s-1.36-10.85,11.06-25.44a15,15,0,0,0,.85-18.08q-4.21-6.27-8.05-12.5-3.7,3-7.52,6a27.76,27.76,0,0,0-5.49,37.82Z" transform="translate(-141.5 -53.87)"/>
<path class="cls-3" d="M385.8,190a30.44,30.44,0,0,0-3.15,39.39l.17.23A395.81,395.81,0,0,0,432.24,176v0h0v0l0,0h0V176a395.8,395.8,0,0,0,49.43,53.68l.16-.22a30.43,30.43,0,0,0-3.15-39.39,358.84,358.84,0,0,1-46.46-57.49v0A358.23,358.23,0,0,1,385.8,190Z" transform="translate(-141.5 -53.87)"/>
<path class="cls-2" d="M359.37,189.63c31.29-27.81,55.66-58,72.88-88.12v0h0v0c17.22,30.11,41.59,60.31,72.88,88.12l.13-.24c7.44-13.43,4.49-30.06-6.35-40.93-30.08-30.15-52.4-62.67-66.67-94.59v0C418,85.78,395.68,118.3,365.59,148.46c-10.84,10.86-13.79,27.5-6.35,40.93Z" transform="translate(-141.5 -53.87)"/>
<path class="cls-2" d="M504.44,250.55C516.86,265.13,515.51,276,515.51,276l9-12,.17-.23a27.78,27.78,0,0,0-5.5-37.82q-3.81-3-7.51-6-3.84,6.24-8.06,12.51A15,15,0,0,0,504.44,250.55Z" transform="translate(-141.5 -53.87)"/>
<path class="cls-2" d="M463.23,253a12.69,12.69,0,0,0-1.09-17.32c-10.88-10.55-29.88-32.21-29.88-32.21s-19,21.63-29.88,32.18A12.7,12.7,0,0,0,401.29,253c4.95,5.8,13.27,14.56,20,21.55a15.2,15.2,0,0,0,21.86,0C450,267.57,458.28,258.83,463.23,253Z" transform="translate(-141.5 -53.87)"/>
<path class="cls-4" d="M432.26,313.23h0" transform="translate(-141.5 -53.87)"/>
<path class="cls-3" d="M378.86,256.89l-.27.23a35,35,0,0,0-3.5,50.31,509.23,509.23,0,0,0,44.54,42.94,19.27,19.27,0,0,0,12.63,4.68v0a19.42,19.42,0,0,0,12.64-4.68,509.1,509.1,0,0,0,44.53-42.95,35,35,0,0,0-3.5-50.31l-.27-.22c-11.19,14.1-35,38.15-46.67,49.73a9.18,9.18,0,0,1-13.17-.21Z" transform="translate(-141.5 -53.87)"/>
<path class="cls-5" d="M345.72,524.86a8.93,8.93,0,0,0-1.31-5.06,7.7,7.7,0,0,0-3.25-2.85,8.54,8.54,0,0,0-4.22-.69,9.52,9.52,0,0,0-8.79,9.83V541h-3.78V502.72h3.73V518a9.45,9.45,0,0,1,3.38-3.27,12.35,12.35,0,0,1,4.47-1.52,13.71,13.71,0,0,1,4.77.22,11.78,11.78,0,0,1,4.34,1.91,10.49,10.49,0,0,1,4.39,8.84V541h-3.73Z" transform="translate(-141.5 -53.87)"/>
<path class="cls-5" d="M408.17,521.82a14.76,14.76,0,0,1,.83,5.33,20.28,20.28,0,0,1-1,5.53,11.7,11.7,0,0,1-1.91,3.63,13.76,13.76,0,0,1-3,2.84A14,14,0,0,1,399.2,541a15.13,15.13,0,0,1-4.55.67,15.64,15.64,0,0,1-4.4-.61,14.35,14.35,0,0,1-3.83-1.75,13.19,13.19,0,0,1-3.05-2.83,11.73,11.73,0,0,1-2-3.81,17.2,17.2,0,0,1-.88-5.32,16.5,16.5,0,0,1,.88-5.48,12.4,12.4,0,0,1,2-3.68,13.67,13.67,0,0,1,6.91-4.68,16.26,16.26,0,0,1,4.56-.64,13.76,13.76,0,0,1,13.36,8.94Zm-3.78,9.64a14.78,14.78,0,0,0,0-8.41,9.72,9.72,0,0,0-1.3-2.79,9.89,9.89,0,0,0-5-3.84,10.59,10.59,0,0,0-9.48,1.36,9.57,9.57,0,0,0-3.72,5.22,14.49,14.49,0,0,0-.62,4,14.79,14.79,0,0,0,.62,4.32,9.93,9.93,0,0,0,9.79,7.13,9.73,9.73,0,0,0,6-1.89A10.76,10.76,0,0,0,404.39,531.46Z" transform="translate(-141.5 -53.87)"/>
<path class="cls-5" d="M443.73,541H439.9V516.77h-3.14v-2.4h3.14v-12l3.78,1.71v10.27h4.73v2.4h-4.68Z" transform="translate(-141.5 -53.87)"/>
<path class="cls-5" d="M503.25,531.25a11.91,11.91,0,0,1-4.21,7.66,12.43,12.43,0,0,1-4,2.24,15,15,0,0,1-4.95.8,14.8,14.8,0,0,1-5.91-1.12,13.08,13.08,0,0,1-4.44-3,12.66,12.66,0,0,1-2.86-4.5,16,16,0,0,1-.95-5.48,16.82,16.82,0,0,1,1-5.69,13.61,13.61,0,0,1,2.77-4.64,13.45,13.45,0,0,1,4.63-3.3,15.65,15.65,0,0,1,6.33-1.17,15,15,0,0,1,6.1,1.12,10.29,10.29,0,0,1,4.07,3.11A11.93,11.93,0,0,1,503,522a22.43,22.43,0,0,1,.45,6l-23.69.32a13.07,13.07,0,0,0,.24,1.84c.12.62.27,1.24.45,1.84a9.11,9.11,0,0,0,1.33,2.71A9.73,9.73,0,0,0,484,537a10.56,10.56,0,0,0,6.29,2,9.06,9.06,0,0,0,6.17-2.13,10,10,0,0,0,3.2-5.59Zm-22.84-7.93c-.07.35-.15.69-.24,1s-.17.66-.24,1l19.8-.11a9.11,9.11,0,0,0-.39-2.9,10.38,10.38,0,0,0-1.44-3,8.67,8.67,0,0,0-2.59-2.4,8.36,8.36,0,0,0-3.88-1.14,11.16,11.16,0,0,0-3.43.32,10.6,10.6,0,0,0-3.22,1.38,11.11,11.11,0,0,0-2.67,2.42A9.33,9.33,0,0,0,480.41,523.32Z" transform="translate(-141.5 -53.87)"/>
<path class="cls-5" d="M534.13,502.66H538V541h-3.83Z" transform="translate(-141.5 -53.87)"/>
<path class="cls-5" d="M199.23,449.34c0,15.33-9.54,26.15-27.83,26.15-12,0-19.2-1.16-27.06-6.18v5.41h-1.29V450.49h1.29c4.64,13.92,15.46,22.42,32.34,22.42,11,0,15.85-7.08,16.88-15.2,3.35-27.44-52.06-18.68-52.06-51,0-10.43,8.38-23.45,29.13-23.45A48.18,48.18,0,0,1,196.14,391v-6.44h1.29v24.22h-1.29c-7.34-17.26-18-23.83-28.87-23.83-12.75,0-20.1,7.21-20.87,14.94C144,425.62,199.23,417.12,199.23,449.34Z" transform="translate(-141.5 -53.87)"/>
<path class="cls-5" d="M273.82,475.49a47.22,47.22,0,0,1-11.34-1.41l2.83,7.34c2.71,6.06,7.22,8.63,12.24,8.63,9,0,19.72-8.5,24.88-21.13h1.28V496h-1.28v-7.09a28.15,28.15,0,0,1-18.82,7.74c-8.5,0-16.36-4.77-19.72-14.69l-3-8.25C241.47,468.15,227,450.37,227,429.36c0-25.51,21.26-46.13,46.78-46.13s46.77,20.62,46.77,46.13S299.33,475.49,273.82,475.49Zm3.61-1.67A30.83,30.83,0,0,0,287,472.4c21.52-6.57,28.22-30.8,21.26-53.61-5.93-19.2-20.48-33.88-38-33.88a31.07,31.07,0,0,0-9.53,1.41c-21.53,6.57-28.23,30.8-21.27,53.48C245.34,459.13,259.9,473.82,277.43,473.82Z" transform="translate(-141.5 -53.87)"/>
<path class="cls-5" d="M426.43,385.81H419v58.63c0,17.91-12.76,31.05-30.93,31.05-19.2,0-35.31-10.69-35.31-34.14V385.81h-6.31v-1.29h22.81v1.29h-6.31v55.54c0,21.26,10.95,33.76,29.63,32.21,15.85-1.29,25.13-15.59,25.13-29.12V385.81h-7.48v-1.29h16.24Z" transform="translate(-141.5 -53.87)"/>
<path class="cls-5" d="M522.77,473.44v1.28H502.28v-1.28h5l-12.76-33.25H462.72l-11.85,33.25h5.28v1.28H444.81v-1.28h4.77l27.7-77.84L473,384.52h10.18l34.54,88.92ZM494,439l-16-41.62L463.24,439Z" transform="translate(-141.5 -53.87)"/>
<path class="cls-5" d="M614.27,450.49v24.23h-1.16v-5.28a13.61,13.61,0,0,1-11,6.05c-8.38,0-19.59-6.05-25-38.4-1.94.13-3.87.13-5.93.13h-6.31v36.22h6.31v1.28H548.55v-1.28h6.18V385.81h-6.18v-1.29h22.68c25.39,0,42.27,8.12,42.27,26.42,0,16.36-13.79,24.61-35,26,3.6,21.64,11.59,29.5,19.07,29.5,7.09,0,13.66-7.08,15.59-16Zm-43-14.56c23.2,0,32.09-10.05,32.09-25s-8.89-25.13-32.09-25.13h-6.31v50.12Z" transform="translate(-141.5 -53.87)"/>
<path class="cls-5" d="M700.19,450.49v24.23H699v-5.28c-.65.38-7.73,5.28-24,5.28h-32.6v-1.28h6.32V385.81h-6.32v-1.29h29.25c18.3,0,24,6.44,24,6.44v-6.44h1.16v24.22h-1.16c-3-15.2-18.42-23.19-29.38-23.19H659V428.2h13.4c14.3,0,16.36-6.05,16.36-13.79H690V443h-1.29c0-7.73-2.06-13.79-16.36-13.79H659v44.46h10.69c11,0,25.13-8.12,29.38-23.2Z" transform="translate(-141.5 -53.87)"/>
</svg>