<svg id="Слой_1" data-name="Слой 1" xmlns="http://www.w3.org/2000/svg" viewBox="0 0 283.3 437.75"><defs><style>.cls-1{fill:#29327c;}.cls-2{fill:#e17d73;}.cls-3{fill:#6b5c49;}.cls-4{fill:#d49e8d;}</style></defs><path class="cls-1" d="M420.85,333.17v0h0v0Z" transform="translate(-279.2 -79.03)"/><path class="cls-2" d="M286.81,384.4l13.06,17.4s-2-15.77,16.08-37a21.74,21.74,0,0,0,1.24-26.28q-6.13-9.1-11.71-18.17-5.39,4.39-10.92,8.72a40.36,40.36,0,0,0-8,55Z" transform="translate(-279.2 -79.03)"/><path class="cls-3" d="M353.32,276.93a44.24,44.24,0,0,0-4.57,57.25l.24.33a574.77,574.77,0,0,0,71.83-78v-.06h0l0,0v0l0,0h0v.06a576.05,576.05,0,0,0,71.84,78l.23-.32A44.22,44.22,0,0,0,488.37,277a520,520,0,0,1-67.52-83.54v0A520.65,520.65,0,0,1,353.32,276.93Z" transform="translate(-279.2 -79.03)"/><path class="cls-2" d="M314.92,276.33C360.39,235.92,395.8,192,420.83,148.27v-.06l0,0v.07c25,43.76,60.45,87.65,105.91,128.07l.2-.35c10.81-19.52,6.53-43.69-9.23-59.48C474,172.71,441.58,125.45,420.85,79.07v0C400.11,125.42,367.68,172.68,324,216.5c-15.76,15.79-20,40-9.23,59.48Z" transform="translate(-279.2 -79.03)"/><path class="cls-2" d="M525.74,364.87c18,21.2,16.09,37,16.09,37l13.06-17.4.24-.33a40.37,40.37,0,0,0-8-55q-5.53-4.32-10.91-8.71-5.58,9.06-11.71,18.17A21.75,21.75,0,0,0,525.74,364.87Z" transform="translate(-279.2 -79.03)"/><path class="cls-2" d="M465.86,368.46c6.31-7.4,5.39-18.41-1.59-25.17-15.82-15.34-43.42-46.82-43.42-46.81s-27.61,31.43-43.43,46.77c-7,6.77-7.89,17.78-1.58,25.17,7.2,8.44,19.29,21.17,29.13,31.34a22.09,22.09,0,0,0,31.76,0C446.57,389.61,458.66,376.9,465.86,368.46Z" transform="translate(-279.2 -79.03)"/><path class="cls-4" d="M420.85,456h0" transform="translate(-279.2 -79.03)"/><path class="cls-3" d="M343.24,374.09l-.38.32c-22.09,18.55-24.57,51.84-5.09,73.12a738.14,738.14,0,0,0,64.72,62.41,28.16,28.16,0,0,0,18.36,6.81v0a28.15,28.15,0,0,0,18.36-6.8,736.76,736.76,0,0,0,64.72-62.42c19.47-21.27,17-54.57-5.09-73.11l-.39-.33c-16.26,20.5-50.88,55.45-67.82,72.29a13.36,13.36,0,0,1-19.15-.31Z" transform="translate(-279.2 -79.03)"/></svg>